Hi there
Here we are right now :

This new one is one of our multiple remastered versions of Blade_Runner
International Theatrical Cut provided in V.O as US language only but still with
En,Fr,Es sub.
This new version is in mkv H.264 but sill to E-AC3 5.1/48 Kz/32 bits/1536 kbps
This special audio codec used is similar as Dolby Digital Plus and is very rarely used anyway.
This way due to this fact,it may not work on certain players.
Tested on :
MPC-BE,PotPlayer,ArcSoft Total media theater,PowerDVD 11 and 12 and can even work
sometimes on vlc 2.05,2.06-git and 2.1.0-git
Anyway don't tell it would not work 'cause we always seriously test any video that we can made as far as we know anyway indeed.
Our previous version to mkv h.263 is also working fine and is not a pilexated garbage as certain ppls have attested about.
We perfectly know what we do or made and then we don't enjoy fake bad feedback from stupid noob(s) without knowledge enough anyway.
So please,before saying true bullshits,try instead to ask some help here and will give you some for sure.
In certain circumstances,you may have to download and install ac3 2.5b filter to get best possible audio experience.
This new release is delivered to HD.800p et has a good quality between video and sound.
Final Thoughts : 16,5/20
Btw : remember and don't forget that Theatrical cut version has less good original video quality than remastered Final Cut version anyway.(1982 vs 2007...)
Status : PreRC1
Final size : 17,3 GB and BD compatible as well.

See more details below right here :

General :
    
    Complete name : C:UsersTyr3llDownloadsBlade_Runner.(1982).(R.Scott)-Remastered-ITC-V.O-H.264-HD.800p[)(]E-AC3 5.1-US+(En,Fr,Es_sub)-PreRC1.mkv

    Format : Matroska
    Format version : Version 2
    File size : 17.3 GiB
    Duration : 1h 57mn
    Overall bit rate mode : Variable
    Overall bit rate : 21.1 Mbps
    Encoded date : UTC 2013-01-02 12:50:34
    Writing application : Lavf54.49.102
    Writing library : Lavf54.49.102
  Video #1
    ID : 1
    Format : AVC
    Format/Info : Advanced Video Codec
    Format profile : High@L4.1
    Format settings, CABAC : Yes
    Format settings, ReFrames : 3 frames
    Codec ID : V_MPEG4/ISO/AVC
    Duration : 1h 57mn
    Bit rate mode : Variable
    Bit rate : 20.0 Mbps
    Maximum bit rate : 24.0 Mbps
    Width : 1 440 pixels
    Height : 816 pixels
    Display aspect ratio : 16:9
    Frame rate mode : Constant
    Frame rate : 23.976 fps
    Color space : YUV
    Chroma subsampling : 4:2:0
    Bit depth : 8 bits
    Scan type : Progressive
    Bits/(Pixel*Frame) : 0.710
    Stream size : 15.7 GiB (91%)
    Writing library : x264 core 129 r2230
    Encoding settings : cabac=1 / ref=2 / deblock=1:0:0 / analyse=0x3:0x133 / me=hex / subme=7 / psy=1 / psy_rd=1.00:0.10 / mixed_ref=1 / me_range=16 / chroma_me=1 / trellis=1 / 8x8dct=1 / cqm=0 / deadzone=21,11 / fast_pskip=1 / chroma_qp_offset=-3 / threads=12 / lookahead_threads=2 / sliced_threads=0 / nr=0 / decimate=1 / interlaced=0 / bluray_compat=1 / constrained_intra=0 / bframes=3 / b_pyramid=1 / b_adapt=2 / b_bias=0 / direct=3 / weightb=1 / open_gop=0 / weightp=1 / keyint=230 / keyint_min=1 / scenecut=40 / intra_refresh=0 / rc_lookahead=40 / rc=abr / mbtree=1 / bitrate=20000 / ratetol=1.0 / qcomp=0.60 / qpmin=10 / qpmax=69 / qpstep=4 / vbv_maxrate=24000 / vbv_bufsize=24000 / nal_hrd=vbr / ip_ratio=1.40 / aq=1:1.00
    Language : English
    Default : Yes
    Forced : No
  Audio #2
    ID : 2
    Format : E-AC-3
    Format/Info : Audio Coding 3
    Format settings, Endianness : Big
    Codec ID : A_EAC3
    Duration : 1h 57mn
    Bit rate mode : Constant
    Bit rate : 1 536 Kbps
    Channel(s) : 6 channels
    Channel positions : Front: L C R, Side: L R, LFE
    Sampling rate : 48.0 KHz
    Bit depth : 32 bits
    Compression mode : Lossy
    Delay relative to video : 1mn 5s
    Stream size : 1.26 GiB (7%)
    Language : English
    Default : Yes
    Forced : No
  Text #3
    ID : 3
    Format : PGS
    Codec ID : S_HDMV/PGS
    Codec ID/Info : The same subtitle format used on BDs/HD-DVDs
    Default : Yes
    Forced : No
  Text #4
    ID : 4
    Format : PGS
    Codec ID : S_HDMV/PGS
    Codec ID/Info : The same subtitle format used on BDs/HD-DVDs
    Default : Yes
    Forced : No
  Text #5
    ID : 5
    Format : PGS
    Codec ID : S_HDMV/PGS
    Codec ID/Info : The same subtitle format used on BDs/HD-DVDs
    Default : Yes
    Forced : No

enjoy and seed,please
best regards


